<svg width="18" height="15" viewBox="0 0 18 15" fill="none" xmlns="http://www.w3.org/2000/svg">
<path fill-rule="evenodd" clip-rule="evenodd" d="M15.5976 0.0406376C15.5381 0.0600929 15.4216 0.112483 15.3388 0.157092C15.2558 0.2017 13.1735 2.39867 10.7113 5.03927L6.23467 9.84033L4.51957 8.00356C3.34374 6.74434 2.74342 6.1339 2.61031 6.0622C2.31673 5.90405 1.84499 5.88682 1.51003 6.02208C1.28847 6.11153 1.17594 6.20737 0.729655 6.68671C0.105646 7.3569 0.0085199 7.5402 0.00334212 8.05743C-0.00338899 8.72642 -0.166144 8.51538 2.92831 11.8491C4.81212 13.8786 5.7505 14.8579 5.868 14.917C6.08831 15.0277 6.38133 15.0277 6.60151 14.9169C6.72108 14.8566 8.4722 13.0039 12.3028 8.88438C18.4701 2.2521 17.996 2.81538 17.9891 2.12819C17.984 1.61096 17.8868 1.42766 17.2628 0.757473C16.822 0.283968 16.7027 0.181874 16.4916 0.0973822C16.2365 -0.00480456 15.8181 -0.0313471 15.5976 0.0406376Z" fill="#C7935E"/>
</svg>
