<svg width="44" height="47" viewBox="0 0 44 47" fill="none" xmlns="http://www.w3.org/2000/svg">
<path fill-rule="evenodd" clip-rule="evenodd" d="M6.89043 0.26451C5.69961 0.908861 3.67768 3.68541 2.13329 6.7975C-1.02437 13.1601 -0.640533 22.1983 3.04521 28.2719C3.74111 29.4187 4.94299 31.0881 5.48884 31.6662C6.18964 32.4084 6.18039 32.1189 5.60827 35.4087C5.28424 37.2715 5.28424 37.2715 5.7112 37.7274C6.49735 38.5673 7.88717 37.9582 7.88717 36.7739C7.88717 33.1655 11.0365 25.6034 14.3819 21.1791C16.1698 18.8147 22.4157 13.0861 23.2059 13.0861C23.2719 13.0861 23.5692 12.9122 23.8668 12.6996C27.1202 10.3746 35.0156 7.99381 39.4713 7.99381C40.812 7.99381 40.812 7.99381 41.0181 9.22141C41.9168 14.5715 41.5922 22.404 40.3135 26.2213C36.9008 36.4096 26.4322 43.2813 15.997 42.1828C12.3746 41.8016 12.3373 41.7752 13.8969 40.698C19.7717 36.6406 26.6515 29.0646 29.525 23.4883C30.0304 22.5073 29.5248 21.6338 28.4516 21.6338C27.7593 21.6338 27.9172 21.4515 25.8258 24.6662C23.2488 28.628 18.7998 33.7008 15.8792 36.0079C15.4408 36.3544 14.8292 36.8483 14.52 37.1058C11.7598 39.4059 7.29474 42.079 2.99411 44.0064C0.361276 45.1863 -0.127486 45.8068 0.853663 46.7242C1.56153 47.386 3.00317 46.9251 7.51638 44.594C9.77335 43.4282 9.77335 43.4282 11.1409 43.7952C20.3786 46.2741 30.2722 43.5617 36.7022 36.7877C37.8814 35.5454 39.6014 33.4083 39.6014 33.1855C39.6014 33.1204 39.7937 32.8065 40.0286 32.4881C43.2667 28.0993 44.6977 19.4712 43.6734 10.5117C43.119 5.66429 42.5652 5.18744 37.9896 5.61755C32.1961 6.16206 27.1836 7.75448 22.5663 10.5174C21.8188 10.9648 20.5702 11.8075 19.7914 12.3902C18.0586 13.6873 18.0914 13.6871 17.9317 12.4053C17.1492 6.11969 10.1972 -1.52451 6.89043 0.26451ZM9.40456 3.15181C14.1869 6.57962 17.282 14.2184 14.8835 16.6728C14.4165 17.1508 13.4464 18.2974 12.7277 19.2211C11.9047 20.2789 11.4094 20.7839 11.3897 20.5851C11.3725 20.4116 11.2656 19.2877 11.1523 18.0874C10.7697 14.0356 10.0542 10.5774 9.50622 10.1307C8.64686 9.43056 7.37575 10.2293 7.6059 11.3249C8.4486 15.3376 8.77806 18.4557 8.78676 22.5036C8.79292 25.2644 8.76411 25.5231 8.36342 26.3228C8.12711 26.7946 7.74925 27.6923 7.52363 28.3173C7.02726 29.6935 7.0075 29.6961 6.14886 28.4992C0.711764 20.921 1.22427 10.194 7.35726 3.20201C8.25179 2.18192 8.05806 2.18665 9.40456 3.15181Z" fill="white"/>
</svg>
