<svg width="50" height="47" viewBox="0 0 50 47" fill="none" xmlns="http://www.w3.org/2000/svg">
<path d="M31.6836 44.4157C31.6836 44.4157 30.0345 45.0197 25.0872 45.0197C20.14 45.0197 17.4602 43.365 15.1927 41.7104H8.59635C6.84689 41.7104 5.16908 41.0132 3.93203 39.772C2.69497 38.5308 2 36.8473 2 35.092V30.1282C2 28.3729 2.69497 26.6895 3.93203 25.4483C5.16908 24.2071 6.84689 23.5098 8.59635 23.5098H11.6884C12.2547 23.5067 12.8109 23.3588 13.3045 23.0802C13.798 22.8015 14.2127 22.4013 14.5094 21.9173C14.5094 21.9173 15.3988 19.9741 18.0786 15.3175C20.7584 10.6608 25.9118 3.6546 26.7363 2C29.7253 2 31.1682 4.27508 30.2406 6.93382C29.1811 9.97311 27.7969 12.5574 27.4104 15.94C27.3547 16.4343 27.734 17.181 28.2298 17.181L41.5781 18.2358" stroke="white" stroke-width="3" stroke-linecap="round" stroke-linejoin="round"/>
<path d="M41.345 25.1442L33.5232 24.9382C31.5678 24.7487 30.3945 23.6613 30.3945 21.8488C30.3945 20.0363 31.7633 18.8788 33.5232 18.7593L41.345 18.3474C43.0658 18.3474 44.4737 20.0363 44.4737 21.8488V21.8663C44.4693 22.7372 44.1377 23.571 43.5515 24.1852C42.9652 24.7994 42.1719 25.1442 41.345 25.1442ZM44.4737 31.838L33.5232 31.632C31.7633 31.5455 30.3945 30.354 30.3945 28.5426C30.3945 26.7291 31.7633 25.5705 33.5232 25.4531L44.4737 25.2472C45.3027 25.2499 46.097 25.5979 46.6832 26.2154C47.2694 26.8328 47.5998 27.6694 47.6024 28.5426C47.5998 29.4157 47.2694 30.2524 46.6832 30.8698C46.097 31.4872 45.3027 31.8353 44.4737 31.838ZM39.7806 45.0196L33.5232 44.7106C31.47 44.5212 30.3945 43.5367 30.3945 41.7242C30.3945 39.9117 31.8024 38.6347 33.5232 38.6347L39.7806 38.4288C40.6097 38.4312 41.4042 38.7792 41.9904 39.3967C42.5766 40.0142 42.907 40.8509 42.9093 41.7242C42.907 42.5974 42.5766 43.4342 41.9904 44.0517C41.4042 44.6692 40.6097 45.0171 39.7806 45.0196ZM42.9093 38.4288L33.5232 38.2228C31.6656 38.1363 30.3945 36.9459 30.3945 35.1334C30.3945 33.3209 31.6656 32.1634 33.5232 32.0439L42.9093 31.838C43.7384 31.8404 44.5329 32.1884 45.1191 32.8059C45.7053 33.4234 46.0357 34.2601 46.038 35.1334C46.0357 36.0066 45.7053 36.8434 45.1191 37.4609C44.5329 38.0784 43.7384 38.4263 42.9093 38.4288Z" stroke="white" stroke-width="3" stroke-miterlimit="10"/>
</svg>
