<svg width="52" height="52" viewBox="0 0 52 52" fill="none" xmlns="http://www.w3.org/2000/svg">
<path d="M47.125 40.625H43.875V37.375H45.5V30.875H39V32.5H35.75V29.25C35.75 28.819 35.9212 28.4057 36.226 28.101C36.5307 27.7962 36.944 27.625 37.375 27.625H47.125C47.556 27.625 47.9693 27.7962 48.274 28.101C48.5788 28.4057 48.75 28.819 48.75 29.25V39C48.75 39.431 48.5788 39.8443 48.274 40.149C47.9693 40.4538 47.556 40.625 47.125 40.625Z" fill="white"/>
<path d="M39 48.7501H29.25C28.819 48.7501 28.4057 48.5789 28.1009 48.2742C27.7962 47.9694 27.625 47.5561 27.625 47.1251V37.3751C27.625 36.9441 27.7962 36.5308 28.1009 36.2261C28.4057 35.9213 28.819 35.7501 29.25 35.7501H39C39.431 35.7501 39.8443 35.9213 40.149 36.2261C40.4538 36.5308 40.625 36.9441 40.625 37.3751V47.1251C40.625 47.5561 40.4538 47.9694 40.149 48.2742C39.8443 48.5789 39.431 48.7501 39 48.7501ZM30.875 45.5001H37.375V39.0001H30.875V45.5001ZM24.375 32.2694C23.2008 31.9634 22.136 31.3343 21.3014 30.4535C20.4668 29.5727 19.8959 28.4756 19.6535 27.2867C19.4111 26.0978 19.507 24.8647 19.9302 23.7275C20.3533 22.5903 21.0869 21.5946 22.0475 20.8533C23.0082 20.1121 24.1574 19.6551 25.3648 19.5341C26.5721 19.4132 27.7892 19.6333 28.8777 20.1693C29.9663 20.7053 30.8828 21.5358 31.5231 22.5665C32.1633 23.5972 32.5018 24.7867 32.5 26.0001H35.75C35.7519 24.1408 35.2221 22.3197 34.2231 20.7516C33.2241 19.1834 31.7975 17.9337 30.1116 17.1496C28.4257 16.3655 26.5507 16.0798 24.7078 16.3262C22.8649 16.5727 21.1309 17.3409 19.7102 18.5404C18.2895 19.7398 17.2414 21.3205 16.6895 23.096C16.1375 24.8715 16.1048 26.7678 16.5951 28.5613C17.0854 30.3549 18.0783 31.9708 19.4568 33.2186C20.8352 34.4663 22.5417 35.294 24.375 35.6039V32.2694Z" fill="white"/>
<path d="M45.2412 22.0188L41.4874 25.3175L39.1799 23.01L43.0962 19.565L39.2612 12.935L33.6712 14.82C32.3617 13.7301 30.8786 12.8677 29.2837 12.2688L28.1299 6.5H20.4599L19.3062 12.2688C17.6984 12.8509 16.2072 13.7148 14.9024 14.82L9.32867 12.935L5.49367 19.565L9.91367 23.4488C9.61303 25.1308 9.61303 26.8529 9.91367 28.535L5.49367 32.435L9.32867 39.065L14.9187 37.18C16.2281 38.2699 17.7112 39.1323 19.3062 39.7313L20.4599 45.5H22.6699V48.75H20.4599C19.7084 48.7494 18.9803 48.4884 18.3996 48.0114C17.8189 47.5344 17.4215 46.8708 17.2749 46.1337L16.4462 42.0388C15.7105 41.6799 14.9993 41.2728 14.3174 40.82L10.3687 42.1525C10.0329 42.2618 9.68178 42.3166 9.32867 42.315C8.75785 42.3189 8.19633 42.1704 7.70211 41.8847C7.2079 41.599 6.79892 41.1866 6.51742 40.69L2.68242 34.06C2.30313 33.4084 2.16218 32.6452 2.28373 31.9011C2.40527 31.157 2.78175 30.4783 3.34867 29.9813L6.46867 27.2513C6.43617 26.8288 6.41992 26.4225 6.41992 26C6.41992 25.5775 6.45242 25.1712 6.48492 24.765L3.34867 22.0188C2.78175 21.5217 2.40527 20.843 2.28373 20.0989C2.16218 19.3548 2.30313 18.5916 2.68242 17.94L6.51742 11.31C6.79892 10.8134 7.2079 10.401 7.70211 10.1153C8.19633 9.82961 8.75785 9.68107 9.32867 9.685C9.68178 9.68338 10.0329 9.73823 10.3687 9.8475L14.3012 11.18C14.9886 10.7271 15.7052 10.32 16.4462 9.96125L17.2749 5.86625C17.4215 5.12917 17.8189 4.46565 18.3996 3.98864C18.9803 3.51163 19.7084 3.2506 20.4599 3.25H28.1299C28.8814 3.2506 29.6095 3.51163 30.1902 3.98864C30.7709 4.46565 31.1684 5.12917 31.3149 5.86625L32.1437 9.96125C32.8794 10.3201 33.5905 10.7272 34.2724 11.18L38.2212 9.8475C38.557 9.73823 38.9081 9.68338 39.2612 9.685C39.832 9.68107 40.3935 9.82961 40.8877 10.1153C41.3819 10.401 41.7909 10.8134 42.0724 11.31L45.9074 17.94C46.2867 18.5916 46.4277 19.3548 46.3061 20.0989C46.1846 20.843 45.8081 21.5217 45.2412 22.0188Z" fill="white"/>
</svg>
