<svg width="35" height="29" viewBox="0 0 35 29" fill="none" xmlns="http://www.w3.org/2000/svg">
<path fill-rule="evenodd" clip-rule="evenodd" d="M32.4785 1.09411C30.1857 1.90422 1.92861 12.3309 1.51242 12.5205C0.12944 13.15 -0.032241 13.9816 1.11906 14.5441C1.23022 14.5984 3.14284 15.1859 5.36932 15.8496L7.72694 16.5524C8.80396 16.8734 9.96637 16.7266 10.9297 16.1478L18.6098 11.5333C23.6655 8.4956 27.9038 5.97612 28.0283 5.93451C28.3404 5.82995 28.6091 5.83972 28.7345 5.9602C28.8223 6.04451 28.8259 6.08683 28.7562 6.21074C28.71 6.29272 25.3527 9.22114 21.2955 12.7183C17.2383 16.2155 13.9079 19.1042 13.8945 19.1377C13.8812 19.1712 13.7439 20.9172 13.5895 23.0177L13.3314 26.5302C13.3198 26.6885 13.4564 26.8177 13.6138 26.7973C13.7816 26.7756 14.0472 26.6924 14.2041 26.6125C14.3611 26.5327 15.4173 25.6137 16.5515 24.5704C17.6855 23.527 18.6527 22.6589 18.7007 22.6412C18.7487 22.6235 20.5547 23.8523 22.7141 25.3717C24.8735 26.8912 26.8094 28.2096 27.0162 28.3013C27.5586 28.5421 28.1697 28.566 28.5666 28.362C28.9211 28.1798 29.2675 27.7273 29.4133 27.256C29.4696 27.0736 30.7041 21.595 32.1566 15.0813C34.5749 4.23633 34.7976 3.18635 34.7984 2.62349C34.7992 2.09167 34.7761 1.96518 34.6278 1.68526C34.5232 1.48791 34.3448 1.28642 34.1705 1.16866C33.7718 0.899353 33.1119 0.8703 32.4785 1.09411Z" fill="white"/>
</svg>
