<svg width="62" height="45" viewBox="0 0 62 45" fill="none" xmlns="http://www.w3.org/2000/svg">
<path fill-rule="evenodd" clip-rule="evenodd" d="M0 1.10517V2.21034H1.09429H2.18858L2.15359 1.1405L2.11861 0.0706705L1.0593 0.0353352L0 0V1.10517ZM4.11615 1.10994V2.21034H11.3799H18.6437V1.10994V0.00953716H11.3799H4.11615V1.10994ZM0.544784 4.3143C-0.0144065 4.63819 0.0078691 3.91082 0.00387402 21.9925C0 39.146 0 39.146 0.29721 39.446C0.594299 39.7462 0.594299 39.7462 4.46033 39.7462C8.32636 39.7462 8.32636 39.7462 8.41026 40.2047C8.87502 42.7466 11.7212 45 14.467 45C17.2017 45 20.0609 42.7364 20.5238 40.2047C20.6077 39.7462 20.6077 39.7462 32.0044 39.7484L43.4011 39.7506L43.6832 40.651C45.4966 46.4394 54.2847 46.2575 55.5817 40.4046L55.7275 39.7462H58.5588C62.4307 39.7462 61.9843 40.6307 61.9843 32.9589V26.772L57.3112 19.4124C54.741 15.3646 52.5044 11.9291 52.3408 11.7777C52.0436 11.5026 52.0436 11.5026 46.7236 11.5026H41.4036V8.31756C41.4036 4.84946 41.3486 4.5235 40.7241 4.28361C40.2558 4.10376 0.85628 4.13384 0.544784 4.3143ZM39.2245 7.34554V8.32367H21.6703H4.11615V9.42407V10.5245H21.6703H39.2245V21.9564V33.3883H30.4474H21.6703V34.4887V35.5891H30.4474H39.2245V36.5673V37.5454H29.917H20.6094L20.4649 36.9646C18.9595 30.9204 9.5336 31.0464 8.40432 37.126C8.32636 37.5454 8.32636 37.5454 5.25281 37.5454H2.17914V36.5673V35.5891H4.72146H7.26379V34.4887V33.3883H4.72146H2.17914V19.8779V6.3674H20.7018H39.2245V7.34554ZM51.6793 14.6815L52.2942 15.6597H48.1713C42.7376 15.6597 43.3406 14.9367 43.3406 21.4511C43.3406 26.5277 43.3406 26.5277 43.6327 26.8708C43.9249 27.2139 43.9249 27.2139 51.8348 27.275L59.7447 27.3361L59.777 30.3622L59.8094 33.3883H58.294H56.7786V34.4887V35.5891H58.2919H59.8052V36.5673V37.5454H57.7606C55.716 37.5454 55.716 37.5454 55.6412 37.143C54.51 31.053 45.0846 30.9137 43.5775 36.9646C43.433 37.5454 43.433 37.5454 42.4182 37.5454H41.4036V25.6244V13.7034H46.234H51.0644L51.6793 14.6815ZM55.9369 21.3666C57.1655 23.2949 58.189 24.9179 58.2112 24.9735C58.2334 25.0288 55.3869 25.0742 51.8856 25.0742H45.5197V21.4673V17.8605H49.6113H53.7028L55.9369 21.3666ZM15.9094 34.8621C18.6172 35.8853 19.3718 39.5 17.312 41.5802C15.3929 43.5184 12.1816 43.0203 10.8964 40.5848C9.14717 37.2705 12.4139 33.5413 15.9094 34.8621ZM51.4044 35.0106C55.1877 36.9718 53.8246 42.7421 49.5779 42.7416C45.1549 42.7412 43.9843 36.5053 48.0986 34.8609C49.0134 34.4953 50.5442 34.5645 51.4044 35.0106ZM13.3977 37.627C13.3533 37.6717 13.3169 38.1669 13.3169 38.7274V39.7462H14.4065H15.4961V38.6458V37.5454H14.4873C13.9323 37.5454 13.442 37.5821 13.3977 37.627ZM48.5463 38.6458V39.7462H49.6359H50.7255V38.6458V37.5454H49.6359H48.5463V38.6458Z" fill="white"/>
</svg>
