<svg width="32" height="32" viewBox="0 0 32 32" fill="none" xmlns="http://www.w3.org/2000/svg">
<path fill-rule="evenodd" clip-rule="evenodd" d="M14.5725 0.592501C7.40608 1.47269 1.77377 7.18557 1.03211 14.3267C0.922208 15.3851 0.988774 17.389 1.16752 18.4005C1.45044 20.0021 1.91861 21.4112 2.64628 22.851C2.88157 23.3168 2.93514 23.8534 2.79656 24.3564L1.92245 27.5294C1.32323 29.7045 0.842564 31.4912 0.854211 31.4998C0.865924 31.5084 2.69092 31.0387 4.90977 30.4562C8.13993 29.6081 8.97646 29.4092 9.10673 29.4585C9.1962 29.4924 9.62077 29.6785 10.0502 29.872C11.445 30.5007 12.9098 30.9175 14.4511 31.1247C15.5223 31.2686 17.4022 31.2678 18.4441 31.1229C21.8642 30.6471 24.9199 29.144 27.3282 26.7528C28.5876 25.5024 29.4251 24.3587 30.2224 22.8003C30.9403 21.3969 31.447 19.867 31.73 18.2471C31.8955 17.3003 31.8952 14.5182 31.7296 13.526C31.4498 11.8498 31.0178 10.5106 30.2798 9.03131C28.1796 4.82174 24.3011 1.82095 19.6638 0.817625C18.2182 0.504871 16.0623 0.409544 14.5725 0.592501ZM18.6393 3.26915C20.5059 3.61224 22.0537 4.23199 23.5846 5.24922C26.1982 6.98593 28.1221 9.68275 28.8825 12.6755C29.441 14.8733 29.3971 17.3696 28.7628 19.483C27.7372 22.9 25.2929 25.7763 22.0943 27.3299C20.2346 28.2331 18.5138 28.627 16.427 28.627C14.0352 28.627 11.9149 28.0502 9.75097 26.8107C9.51742 26.6769 9.24071 26.6401 8.98029 26.7081L6.99185 27.2273C5.67472 27.5713 4.58709 27.8428 4.57486 27.8306C4.56263 27.8185 4.83286 26.7942 5.17538 25.5543C5.51784 24.3145 5.80057 23.2545 5.80362 23.1988C5.80668 23.1431 5.63828 22.821 5.42941 22.4831C2.36063 17.5191 3.16494 10.9726 7.35227 6.83246C9.43519 4.77297 12.0722 3.50734 15.028 3.14841C15.8263 3.05147 17.817 3.11801 18.6393 3.26915ZM10.3526 8.91206C9.97631 9.09721 9.28872 9.90432 9.00125 10.4983C8.43658 11.6652 8.4481 13.136 9.03255 14.4979C9.75078 16.1715 11.63 18.5479 13.4851 20.1282C14.7854 21.2359 15.8719 21.885 17.4681 22.5076C19.0987 23.1437 19.4115 23.217 20.4938 23.2165C21.3451 23.2162 21.4802 23.2001 21.876 23.0518C22.5268 22.8082 23.0126 22.5012 23.4965 22.0277C23.8719 21.6603 23.9475 21.5454 24.0705 21.1546C24.2238 20.6675 24.3113 19.8834 24.2428 19.612C24.207 19.4701 24.0232 19.3549 23.0987 18.8949C21.405 18.052 20.7223 17.7621 20.4321 17.7621C20.1944 17.7621 20.1539 17.791 19.8665 18.1663C19.2095 19.024 18.6066 19.6883 18.4495 19.7274C18.2614 19.7743 17.8918 19.6398 17.038 19.2136C15.6557 18.5236 14.5279 17.601 13.5583 16.3668C13.0306 15.6951 12.5554 14.9296 12.5554 14.7513C12.5554 14.6749 12.8 14.2952 13.0991 13.9076C13.6852 13.1478 13.8568 12.8642 13.8568 12.6555C13.8568 12.5823 13.7297 12.2244 13.5744 11.8601C13.419 11.4958 13.1058 10.7467 12.8783 10.1954C12.5962 9.51208 12.3982 9.12606 12.2562 8.98281C12.1229 8.84829 11.9413 8.77263 11.7519 8.77265L11.3418 8.77269C10.75 8.77269 10.59 8.79526 10.3526 8.91206Z" fill="white"/>
</svg>
